<svg width="249" height="138" viewBox="0 0 249 138" fill="none" xmlns="http://www.w3.org/2000/svg">
<g opacity="0.3" clip-path="url(#clip0_35575_9943)">
<g opacity="0.8">
<path d="M346.74 102.052C344.421 101.964 342.146 101.177 340.221 99.8215L30.8894 -116.357C28.1767 -118.238 26.3829 -121.081 25.7703 -124.361C25.2016 -127.641 25.9016 -130.921 27.783 -133.632L243.571 -443.709C246.021 -447.208 250.003 -449.176 254.29 -449.001C256.609 -448.913 258.884 -448.126 260.81 -446.77L570.141 -230.591C572.853 -228.711 574.647 -225.868 575.26 -222.588C575.828 -219.308 575.128 -216.028 573.247 -213.316L357.459 96.7164C355.009 100.215 351.027 102.227 346.74 102.052ZM254.247 -447.995C250.309 -448.17 246.634 -446.333 244.402 -443.14L28.6143 -133.064C26.8642 -130.571 26.2079 -127.553 26.7329 -124.536C27.2579 -121.518 28.9205 -118.938 31.4144 -117.188L340.746 98.9905C342.539 100.215 344.596 100.915 346.74 101.046C350.677 101.221 354.353 99.3841 356.584 96.1915L572.372 -213.885C574.122 -216.378 574.778 -219.396 574.253 -222.413C573.728 -225.431 572.066 -228.011 569.572 -229.761L260.241 -445.939C258.491 -447.208 256.39 -447.907 254.247 -447.995Z" fill="#6E97AE"/>
<path d="M334.795 103.67C332.476 103.583 330.201 102.796 328.32 101.396L29.4892 -113.164C26.8641 -115.045 25.1139 -117.844 24.5889 -121.037C24.0639 -124.229 24.8077 -127.422 26.689 -130.046L240.814 -429.582C243.221 -432.906 247.071 -434.787 251.184 -434.612C253.503 -434.524 255.778 -433.737 257.659 -432.338L556.49 -217.777C561.915 -213.885 563.14 -206.319 559.29 -200.896L345.121 98.641C342.758 101.965 338.908 103.845 334.795 103.67ZM251.14 -433.606C247.377 -433.781 243.833 -432.032 241.646 -428.97L27.4766 -129.434C25.7702 -127.028 25.0702 -124.098 25.5515 -121.168C26.0328 -118.238 27.6078 -115.657 30.0142 -113.952L328.845 100.609C330.595 101.877 332.651 102.577 334.795 102.665C338.558 102.839 342.102 101.09 344.289 98.0287L558.415 -201.508C561.959 -206.494 560.821 -213.447 555.877 -216.99L257.047 -431.55C255.34 -432.819 253.284 -433.519 251.14 -433.606Z" fill="#6E97AE"/>
<path d="M322.807 105.332C320.488 105.245 318.256 104.457 316.331 103.058L28.0015 -109.885C22.7949 -113.733 21.6574 -121.168 25.5076 -126.372L238.014 -415.413C240.333 -418.605 244.096 -420.398 248.033 -420.224C250.352 -420.136 252.584 -419.349 254.509 -417.949L542.839 -205.007C545.376 -203.126 547.039 -200.371 547.476 -197.266C547.958 -194.161 547.17 -191.056 545.333 -188.475L332.826 100.565C330.507 103.714 326.744 105.507 322.807 105.332ZM247.99 -419.218C244.402 -419.393 240.946 -417.731 238.845 -414.844L26.3389 -125.804C22.7949 -120.993 23.845 -114.214 28.614 -110.672L316.944 102.271C318.694 103.539 320.707 104.282 322.85 104.37C326.438 104.545 329.895 102.883 331.995 99.9964L544.501 -189.044C546.208 -191.362 546.908 -194.204 546.47 -197.091C546.033 -199.934 544.545 -202.47 542.226 -204.176L253.896 -417.118C252.19 -418.387 250.134 -419.13 247.99 -419.218Z" fill="#6E97AE"/>
<path d="M310.862 106.994C308.543 106.906 306.312 106.075 304.431 104.676L26.6014 -106.605C24.1513 -108.442 22.5762 -111.153 22.1824 -114.215C21.7449 -117.276 22.5762 -120.294 24.4138 -122.743L235.301 -401.243C237.577 -404.261 241.208 -405.966 244.971 -405.792C247.29 -405.704 249.521 -404.873 251.402 -403.474L529.232 -192.193C534.263 -188.344 535.27 -181.128 531.419 -176.055L320.532 102.445C318.213 105.463 314.625 107.169 310.862 106.994ZM244.883 -404.829C241.427 -404.961 238.145 -403.43 236.045 -400.675L25.1576 -122.174C23.4512 -119.944 22.7512 -117.189 23.1012 -114.39C23.495 -111.591 24.9388 -109.141 27.1702 -107.436L305.043 103.888C306.75 105.2 308.762 105.944 310.906 106.031C314.362 106.163 317.644 104.632 319.744 101.877L530.632 -176.624C534.132 -181.259 533.213 -187.863 528.619 -191.362L250.79 -402.643C249.04 -403.998 247.027 -404.698 244.883 -404.829Z" fill="#6E97AE"/>
<path d="M298.874 108.657C296.555 108.57 294.324 107.739 292.486 106.295L25.1578 -103.367C22.7952 -105.204 21.3076 -107.872 20.9576 -110.846C20.6075 -113.82 21.3951 -116.75 23.2327 -119.111L232.502 -387.116C234.733 -389.958 238.189 -391.576 241.821 -391.401C244.14 -391.314 246.371 -390.483 248.209 -389.04L515.537 -179.377C517.9 -177.541 519.388 -174.873 519.738 -171.899C520.088 -168.925 519.3 -165.995 517.462 -163.633L308.194 104.371C305.962 107.214 302.506 108.832 298.874 108.657ZM241.777 -390.396C238.496 -390.527 235.302 -389.084 233.289 -386.503L24.0202 -118.499C22.3576 -116.356 21.6138 -113.688 21.9201 -110.977C22.2701 -108.265 23.6265 -105.86 25.7703 -104.154L293.099 105.508C294.762 106.82 296.818 107.564 298.918 107.651C302.199 107.782 305.393 106.339 307.406 103.759L516.675 -164.245C518.337 -166.388 519.081 -169.056 518.775 -171.768C518.425 -174.479 517.069 -176.885 514.925 -178.59L247.596 -388.253C245.934 -389.565 243.921 -390.308 241.777 -390.396Z" fill="#6E97AE"/>
<path d="M286.93 110.318C284.611 110.231 282.38 109.4 280.586 107.913L23.7577 -100.131C19.0762 -103.936 18.3761 -110.802 22.1389 -115.482L229.789 -372.946C231.933 -375.614 235.302 -377.144 238.758 -377.013C241.077 -376.926 243.308 -376.095 245.146 -374.608L501.974 -166.564C504.249 -164.727 505.649 -162.103 505.956 -159.216C506.262 -156.33 505.43 -153.487 503.593 -151.213L295.899 106.295C293.711 108.963 290.386 110.493 286.93 110.318ZM238.671 -376.007C235.52 -376.139 232.502 -374.783 230.533 -372.334L22.8827 -114.87C19.47 -110.627 20.1263 -104.33 24.3703 -100.918L281.198 107.126C282.861 108.482 284.873 109.225 286.974 109.313C290.124 109.444 293.143 108.088 295.112 105.639L502.762 -151.825C504.424 -153.881 505.168 -156.461 504.905 -159.129C504.643 -161.753 503.33 -164.158 501.274 -165.82L244.446 -373.864C242.783 -375.176 240.771 -375.92 238.671 -376.007Z" fill="#6E97AE"/>
<path d="M274.941 111.979C272.622 111.892 270.391 111.017 268.597 109.53L22.2699 -96.8957C20.0822 -98.7325 18.7696 -101.269 18.5071 -104.112C18.2446 -106.955 19.1197 -109.71 20.9573 -111.897L226.945 -358.821C229.089 -361.401 232.239 -362.757 235.564 -362.626C237.927 -362.538 240.114 -361.663 241.908 -360.176L488.235 -153.75C492.742 -149.989 493.311 -143.254 489.548 -138.793L283.561 108.175C281.417 110.755 278.31 112.154 274.941 111.979ZM235.52 -361.62C232.501 -361.751 229.657 -360.483 227.732 -358.165L21.7011 -111.241C20.0385 -109.273 19.2509 -106.78 19.5134 -104.199C19.7322 -101.619 20.9573 -99.3011 22.9261 -97.6392L269.254 108.787C270.872 110.143 272.885 110.93 274.985 111.017C278.004 111.149 280.848 109.88 282.773 107.562L488.804 -139.362C492.217 -143.429 491.648 -149.552 487.579 -152.919L241.252 -359.345C239.633 -360.745 237.664 -361.532 235.52 -361.62Z" fill="#6E97AE"/>
<path d="M262.997 113.643C260.635 113.555 258.491 112.681 256.697 111.106L20.8701 -93.7018C18.77 -95.4949 17.5449 -98.0315 17.3261 -100.787C17.1511 -103.542 18.0262 -106.21 19.82 -108.309L224.189 -344.737C226.289 -347.142 229.264 -348.454 232.458 -348.279C234.82 -348.192 236.964 -347.317 238.758 -345.743L474.585 -140.935C476.685 -139.142 477.91 -136.605 478.129 -133.85C478.304 -131.095 477.429 -128.427 475.635 -126.328L271.266 110.1C269.166 112.506 266.147 113.818 262.997 113.643ZM232.414 -347.23C229.526 -347.361 226.814 -346.18 224.932 -343.993L20.5638 -107.609C18.945 -105.729 18.1137 -103.323 18.2887 -100.831C18.4637 -98.3377 19.6013 -96.0635 21.4826 -94.4453L257.309 110.363C258.928 111.762 260.897 112.549 262.997 112.637C265.885 112.768 268.598 111.587 270.479 109.4L474.847 -127.027C476.466 -128.908 477.298 -131.313 477.123 -133.806C476.948 -136.299 475.81 -138.573 473.929 -140.191L238.102 -344.999C236.483 -346.355 234.514 -347.142 232.414 -347.23Z" fill="#6E97AE"/>
<path d="M251.009 115.348C248.69 115.26 246.458 114.342 244.752 112.768L19.4259 -90.3785C17.4133 -92.1716 16.2757 -94.6644 16.1007 -97.3322C15.9695 -100 16.8883 -102.58 18.6821 -104.592L221.432 -330.48C223.444 -332.71 226.332 -333.935 229.351 -333.804C231.67 -333.716 233.901 -332.798 235.608 -331.224L460.934 -128.078C462.946 -126.284 464.084 -123.792 464.259 -121.124C464.39 -118.456 463.471 -115.876 461.678 -113.864L258.928 112.024C256.915 114.254 254.028 115.479 251.009 115.348ZM229.307 -332.842C226.595 -332.973 224.013 -331.879 222.176 -329.824L19.3822 -103.936C17.7633 -102.143 16.932 -99.8251 17.0633 -97.376C17.1945 -94.9706 18.2446 -92.7401 20.0385 -91.122L245.365 112.024C246.94 113.424 248.908 114.254 251.009 114.342C253.721 114.473 256.303 113.38 258.14 111.324L460.89 -114.564C462.509 -116.357 463.34 -118.675 463.209 -121.124C463.078 -123.529 462.028 -125.76 460.234 -127.378L234.908 -330.524C233.376 -331.923 231.364 -332.754 229.307 -332.842Z" fill="#6E97AE"/>
<path d="M239.064 117.009C236.745 116.922 234.514 115.96 232.808 114.385L17.9823 -87.1426C16.0571 -88.9357 14.9633 -91.3411 14.8758 -93.9652C14.7883 -96.5892 15.7071 -99.0821 17.501 -100.963L218.632 -316.354C220.601 -318.454 223.357 -319.547 226.201 -319.459C228.52 -319.372 230.751 -318.41 232.458 -316.835L447.283 -115.308C451.221 -111.634 451.396 -105.424 447.721 -101.487L246.634 113.904C244.665 116.003 241.908 117.141 239.064 117.009ZM226.157 -318.454C223.576 -318.585 221.126 -317.535 219.376 -315.655L18.2448 -100.307C16.6259 -98.601 15.7946 -96.3706 15.8821 -94.0089C15.9696 -91.6472 16.9322 -89.5043 18.6386 -87.8861L233.464 113.642C234.995 115.085 236.964 115.916 239.064 116.003C241.646 116.135 244.096 115.085 245.846 113.248L446.977 -102.143C450.302 -105.686 450.083 -111.24 446.583 -114.564L231.758 -316.092C230.226 -317.535 228.257 -318.366 226.157 -318.454Z" fill="#6E97AE"/>
<path d="M227.076 118.671C224.758 118.583 222.526 117.621 220.864 115.959L16.5387 -83.9506C12.7759 -87.6242 12.7322 -93.6596 16.3637 -97.4207L215.876 -302.272C217.757 -304.197 220.382 -305.246 223.095 -305.115C225.414 -305.028 227.645 -304.066 229.308 -302.404L433.633 -102.494C437.395 -98.8203 437.439 -92.7849 433.808 -89.0237L234.296 115.828C232.414 117.752 229.789 118.802 227.076 118.671ZM223.051 -304.065C220.645 -304.153 218.282 -303.235 216.576 -301.485L17.0637 -96.6772C13.7822 -93.3097 13.8697 -87.9304 17.195 -84.6066L221.52 115.303C223.007 116.746 224.976 117.621 227.076 117.708C229.483 117.796 231.845 116.878 233.552 115.128L433.064 -89.7235C436.345 -93.0911 436.258 -98.4704 432.933 -101.75L228.608 -301.66C227.12 -303.147 225.151 -303.978 223.051 -304.065Z" fill="#6E97AE"/>
<path d="M215.132 120.377C212.769 120.29 210.582 119.284 208.963 117.622L15.0948 -80.6694C11.5508 -84.2994 11.5946 -90.1598 15.226 -93.746L213.119 -288.058C214.957 -289.851 217.451 -290.813 219.988 -290.682C222.351 -290.594 224.539 -289.588 226.158 -287.926L419.982 -89.635C423.526 -86.005 423.482 -80.1446 419.85 -76.5584L221.957 117.753C220.163 119.503 217.67 120.465 215.132 120.377ZM219.945 -289.72C217.67 -289.807 215.438 -288.976 213.819 -287.358L15.9261 -93.0462C12.6884 -89.8536 12.6446 -84.6492 15.7948 -81.3692L209.663 116.922C211.15 118.409 213.075 119.284 215.176 119.371C217.451 119.459 219.682 118.628 221.301 117.01L419.194 -77.3019C422.432 -80.4945 422.476 -85.6989 419.325 -88.979L225.501 -287.27C223.97 -288.757 222.001 -289.632 219.945 -289.72Z" fill="#6E97AE"/>
<path d="M203.143 122.04C200.781 121.952 198.593 120.946 196.974 119.197L13.6507 -77.4325C12.0318 -79.1819 11.1568 -81.456 11.2443 -83.8614C11.3318 -86.2668 12.3381 -88.4973 14.0882 -90.1154L210.363 -273.931C212.113 -275.593 214.432 -276.468 216.882 -276.336C219.244 -276.249 221.432 -275.243 223.051 -273.494L406.331 -76.8202C409.7 -73.1903 409.525 -67.5048 405.893 -64.1373L209.662 119.634C207.869 121.296 205.593 122.171 203.143 122.04ZM216.794 -275.33C214.65 -275.418 212.594 -274.674 211.019 -273.187L14.7445 -89.372C13.1694 -87.9287 12.2943 -85.9607 12.2068 -83.8177C12.1193 -81.6747 12.9069 -79.6629 14.3507 -78.0885L197.718 118.541C199.162 120.072 201.087 120.99 203.187 121.078C205.331 121.165 207.387 120.422 208.962 118.935L405.237 -64.8808C408.431 -67.8984 408.606 -72.9279 405.631 -76.1642L222.263 -272.838C220.863 -274.368 218.894 -275.243 216.794 -275.33Z" fill="#6E97AE"/>
<path d="M191.199 123.745C188.836 123.658 186.649 122.608 185.073 120.815L12.2068 -74.1966C9.01284 -77.7828 9.36286 -83.2933 12.9506 -86.4859L207.606 -259.761C209.312 -261.292 211.5 -262.036 213.775 -261.948C216.138 -261.861 218.325 -260.811 219.901 -259.018L392.724 -64.0065C395.917 -60.4203 395.567 -54.9097 391.98 -51.7171L197.324 121.558C195.662 123.089 193.474 123.833 191.199 123.745ZM213.688 -260.986C211.675 -261.073 209.75 -260.374 208.219 -259.062L13.6069 -85.7424C10.4129 -82.8997 10.1504 -78.0452 12.9506 -74.8526L185.817 120.159C187.217 121.733 189.142 122.652 191.243 122.739C193.255 122.827 195.18 122.127 196.712 120.815L391.367 -52.4606C394.561 -55.3034 394.824 -60.1579 392.023 -63.3505L219.157 -258.362C217.713 -259.98 215.788 -260.898 213.688 -260.986Z" fill="#6E97AE"/>
<path d="M179.211 125.45C176.848 125.362 174.617 124.269 173.129 122.432L10.7633 -70.9612C9.31947 -72.7106 8.61943 -74.8973 8.79444 -77.1277C8.96945 -79.3582 10.0633 -81.4137 11.7696 -82.8569L204.762 -245.636C206.381 -246.992 208.438 -247.692 210.582 -247.604C212.944 -247.517 215.176 -246.423 216.663 -244.587L379.073 -51.1933C382.048 -47.6071 381.611 -42.2715 378.067 -39.2976L185.03 123.482C183.411 124.837 181.355 125.537 179.211 125.45ZM210.582 -246.598C208.7 -246.686 206.906 -246.074 205.463 -244.849L12.4259 -82.1135C10.8946 -80.8452 9.97576 -79.0083 9.80075 -77.0403C9.62574 -75.0722 10.2383 -73.1042 11.5071 -71.5735L173.873 121.82C175.229 123.394 177.155 124.4 179.255 124.488C181.136 124.575 182.93 123.963 184.374 122.738L377.367 -40.041C380.517 -42.7088 380.911 -47.4321 378.285 -50.581L215.919 -243.974C214.607 -245.549 212.638 -246.511 210.582 -246.598Z" fill="#6E97AE"/>
<path d="M167.266 127.156C164.903 127.068 162.672 125.931 161.184 124.051L9.31908 -67.7244C7.96275 -69.43 7.35021 -71.573 7.61273 -73.7597C7.87525 -75.9464 8.92531 -77.8707 10.6754 -79.2702L202.049 -231.509C203.581 -232.734 205.506 -233.346 207.475 -233.303C209.837 -233.215 212.069 -232.078 213.556 -230.197L365.422 -38.3786C368.222 -34.8362 367.653 -29.6755 364.109 -26.8328L172.691 125.406C171.16 126.631 169.235 127.243 167.266 127.156ZM207.431 -232.253C205.681 -232.34 204.018 -231.772 202.662 -230.679L11.288 -78.483C9.80036 -77.3022 8.8378 -75.5528 8.61904 -73.6722C8.40028 -71.7479 8.92531 -69.8673 10.1504 -68.3804L161.972 123.438C163.285 125.057 165.21 126.062 167.31 126.15C169.016 126.237 170.723 125.669 172.079 124.576L363.453 -27.6637C366.559 -30.1566 367.084 -34.705 364.634 -37.8101L212.769 -229.585C211.456 -231.16 209.531 -232.165 207.431 -232.253Z" fill="#6E97AE"/>
<path d="M155.278 128.862C152.871 128.775 150.684 127.594 149.24 125.67L7.87521 -64.4872C5.25005 -68.0297 5.99385 -73.0154 9.49406 -75.6395L199.249 -217.339C200.693 -218.432 202.531 -219.001 204.325 -218.913C206.731 -218.826 208.919 -217.645 210.362 -215.721L351.771 -25.5637C354.396 -22.0212 353.652 -17.0355 350.152 -14.4114L160.397 127.288C158.909 128.381 157.115 128.95 155.278 128.862ZM204.325 -217.907C202.749 -217.995 201.131 -217.47 199.862 -216.552L10.1066 -74.8523C7.04391 -72.5343 6.38762 -68.1609 8.66276 -65.0995L150.028 125.057C151.296 126.763 153.221 127.769 155.322 127.856C156.897 127.944 158.516 127.419 159.784 126.501L349.54 -15.1986C352.602 -17.5165 353.259 -21.89 350.983 -24.9514L209.619 -215.108C208.35 -216.814 206.425 -217.82 204.325 -217.907Z" fill="#6E97AE"/>
<path d="M143.333 130.611C140.927 130.523 138.739 129.299 137.339 127.287L6.47514 -61.252C4.06875 -64.7508 4.90005 -69.5615 8.40026 -72.0107L196.537 -203.214C197.937 -204.176 199.556 -204.657 201.262 -204.569C203.668 -204.482 205.856 -203.257 207.256 -201.246L338.12 -12.7507C340.527 -9.25191 339.695 -4.44112 336.195 -1.992L148.059 129.211C146.659 130.173 144.996 130.654 143.333 130.611ZM201.218 -203.564C199.731 -203.607 198.33 -203.214 197.105 -202.383L8.96904 -71.1797C5.90636 -69.0367 5.16256 -64.8382 7.30644 -61.8206L138.127 126.718C139.352 128.468 141.233 129.517 143.377 129.605C144.865 129.648 146.265 129.255 147.49 128.424L335.626 -2.7792C338.689 -4.92219 339.433 -9.1207 337.289 -12.1821L206.425 -200.721C205.243 -202.426 203.318 -203.476 201.218 -203.564Z" fill="#6E97AE"/>
<path d="M131.345 132.317C128.939 132.23 126.708 130.918 125.395 128.906L5.03157 -58.0147C2.80018 -61.4697 3.80649 -66.1493 7.26295 -68.3798L193.78 -189.043C195.093 -189.874 196.624 -190.311 198.156 -190.224C200.562 -190.136 202.793 -188.824 204.106 -186.812L324.47 0.0644544C326.701 3.51947 325.695 8.19904 322.238 10.4295L135.721 131.136C134.408 131.967 132.877 132.405 131.345 132.317ZM198.112 -189.261C196.756 -189.305 195.443 -188.955 194.305 -188.212L7.78798 -67.5488C4.76905 -65.5808 3.894 -61.5572 5.86287 -58.5395L126.226 128.337C127.364 130.087 129.289 131.224 131.389 131.311C132.746 131.355 134.058 131.005 135.196 130.262L321.713 9.59854C324.732 7.63049 325.607 3.60693 323.638 0.589265L203.275 -186.288C202.137 -188.037 200.212 -189.174 198.112 -189.261Z" fill="#6E97AE"/>
<path d="M119.357 134.067C116.907 133.979 114.676 132.623 113.407 130.524L3.58776 -54.7782C1.53138 -58.2332 2.66895 -62.6941 6.12541 -64.7496L191.024 -174.916C192.249 -175.66 193.649 -176.01 195.049 -175.922C197.499 -175.835 199.731 -174.479 201 -172.38L310.819 12.9226C312.875 16.3776 311.738 20.8385 308.281 22.894L123.382 133.017C122.157 133.761 120.801 134.11 119.357 134.067ZM194.962 -174.916C193.737 -174.96 192.555 -174.654 191.505 -174.042L6.60669 -63.9187C3.63151 -62.1255 2.66895 -58.2769 4.41906 -55.303L114.282 129.999C115.376 131.836 117.301 132.973 119.401 133.061C120.626 133.105 121.807 132.798 122.857 132.186L307.756 22.0193C310.731 20.2262 311.694 16.3776 309.944 13.4036L200.081 -171.855C199.031 -173.692 197.106 -174.829 194.962 -174.916Z" fill="#6E97AE"/>
<path d="M107.413 135.816C104.963 135.729 102.687 134.285 101.506 132.099L2.14382 -51.5417C0.306211 -54.953 1.57504 -59.2827 4.98774 -61.1195L188.224 -160.746C189.361 -161.359 190.63 -161.665 191.899 -161.577C194.349 -161.49 196.624 -160.047 197.806 -157.86L297.168 25.7369C299.005 29.1481 297.737 33.4778 294.324 35.3147L111.088 134.942C109.95 135.554 108.681 135.86 107.413 135.816ZM191.855 -160.615C190.761 -160.659 189.668 -160.396 188.705 -159.872L5.46902 -60.2448C2.5376 -58.6267 1.44378 -54.953 3.01887 -51.979L102.381 131.618C103.387 133.498 105.313 134.723 107.456 134.81C108.55 134.854 109.644 134.592 110.607 134.067L293.843 34.44C296.774 32.8218 297.868 29.1481 296.293 26.1742L196.931 -157.466C195.924 -159.347 193.999 -160.528 191.855 -160.615Z" fill="#6E97AE"/>
<path d="M95.4245 137.565C92.9306 137.434 90.6554 135.99 89.5616 133.716L0.700013 -48.3061C-0.962587 -51.7173 0.437497 -55.8284 3.8502 -57.4903L185.467 -146.577C186.517 -147.102 187.655 -147.321 188.793 -147.277C191.33 -147.146 193.562 -145.702 194.655 -143.428L283.517 38.5503C285.18 41.9616 283.78 46.0726 280.367 47.7345L98.7497 136.865C97.6996 137.39 96.562 137.609 95.4245 137.565ZM188.749 -146.315C187.786 -146.358 186.78 -146.14 185.905 -145.702L4.28773 -56.6156C1.40005 -55.1724 0.174981 -51.6736 1.57507 -48.7434L90.4367 133.279C91.3992 135.203 93.3243 136.472 95.4682 136.559C96.4308 136.603 97.4371 136.384 98.3121 135.947L279.929 46.8598C282.817 45.4166 284.042 41.9179 282.642 38.9877L193.78 -143.035C192.818 -144.959 190.893 -146.227 188.749 -146.315Z" fill="#6E97AE"/>
</g>
</g>
<defs>
<clipPath id="clip0_35575_9943">
<rect width="138" height="249" fill="white" transform="translate(0 138) rotate(-90)"/>
</clipPath>
</defs>
</svg>
