<svg width="35" height="35" viewBox="0 0 35 35" fill="none" xmlns="http://www.w3.org/2000/svg">
<path d="M17.5 35C27.165 35 35 27.165 35 17.5C35 7.83502 27.165 0 17.5 0C7.83502 0 0 7.83502 0 17.5C0 27.165 7.83502 35 17.5 35Z" fill="#00C2FF"/>
<path fill-rule="evenodd" clip-rule="evenodd" d="M17.6242 15.6792C17.2632 15.6666 16.9132 15.5523 16.6143 15.3495C16.4447 15.2394 16.2855 15.114 16.1386 14.975C16.1169 14.9506 16.0944 14.9269 16.071 14.9038C15.8217 14.6596 15.4895 14.5184 15.1407 14.5082C15.1008 14.5082 15.0612 14.5082 15.022 14.5082C14.6731 14.5253 14.3435 14.6733 14.0988 14.9226C13.9361 15.0913 13.7563 15.2428 13.5625 15.3746C13.2602 15.5997 12.8942 15.723 12.5174 15.7269C12.1405 15.7307 11.7721 15.6149 11.4653 15.396C11.269 15.2681 11.0864 15.1203 10.9204 14.9549C10.6755 14.7152 10.3508 14.5743 10.0085 14.5593C9.8989 14.5543 9.78914 14.5622 9.6814 14.5827C9.65602 14.6427 9.63096 14.7033 9.60722 14.764C9.40794 15.2709 9.25811 15.7959 9.15984 16.3317C8.91956 17.6393 8.98861 18.985 9.36146 20.2612C9.73431 21.5374 10.4006 22.7087 11.3071 23.6813C12.2136 24.6539 13.3351 25.4009 14.5819 25.8625C15.8287 26.3242 17.1663 26.4876 18.4876 26.3399C19.8089 26.1921 21.0773 25.7372 22.1913 25.0115C23.3054 24.2859 24.2341 23.3096 24.9034 22.1608C25.5726 21.0119 25.9638 19.7225 26.0455 18.3954C26.1272 17.0684 25.8973 15.7407 25.3741 14.5184C25.3573 14.4795 25.3411 14.4412 25.323 14.4023L25.2778 14.4043C24.9289 14.4213 24.5992 14.5693 24.3547 14.8187C24.1919 14.9873 24.0122 15.1387 23.8186 15.2707C23.5163 15.4958 23.1504 15.6192 22.7735 15.623C22.3967 15.6269 22.0283 15.511 21.7215 15.2922C21.5251 15.164 21.3423 15.0162 21.1759 14.851C20.9313 14.6113 20.6067 14.4704 20.2646 14.4554C20.2123 14.4532 20.1599 14.4538 20.1077 14.4574C19.7667 14.4795 19.4459 14.6266 19.2067 14.8705L19.2043 14.8728C19.1816 14.8962 19.1595 14.9203 19.1384 14.945C18.9946 15.0874 18.838 15.2162 18.6706 15.3297C18.3639 15.5485 17.9994 15.6716 17.6228 15.6835L17.6242 15.6792Z" fill="white"/>
<path fill-rule="evenodd" clip-rule="evenodd" d="M7.44437 13.948C8.14709 11.9591 9.4238 10.2232 11.1131 8.95992C12.8023 7.69661 14.8283 6.9626 16.9347 6.85071C19.0411 6.73882 21.1335 7.25406 22.9471 8.33129C24.7607 9.40853 26.2141 10.9994 27.1236 12.9026C28.033 14.8059 28.3577 16.9361 28.0565 19.0239C27.7553 21.1117 26.8417 23.0633 25.4314 24.6319C24.021 26.2005 22.1772 27.3156 20.1331 27.8363C18.0889 28.357 15.9363 28.2598 13.9474 27.5571C12.6243 27.0941 11.4058 26.3741 10.3619 25.4384C9.31812 24.5028 8.46961 23.37 7.86523 22.1052C7.26085 20.8403 6.91253 19.4685 6.8403 18.0686C6.76807 16.6687 6.97337 15.2683 7.44437 13.948ZM28.5963 21.4213C29.372 19.2264 29.4795 16.8507 28.905 14.5948C28.3305 12.3388 27.0999 10.3039 25.3689 8.74735C23.6378 7.19081 21.4841 6.18256 19.18 5.85012C16.8759 5.51769 14.525 5.876 12.4245 6.87974C10.3241 7.88348 8.56844 9.48756 7.37969 11.4891C6.19094 13.4907 5.62245 15.7998 5.74612 18.1245C5.86978 20.4491 6.68005 22.6849 8.07444 24.5491C9.46884 26.4132 11.3847 27.822 13.5798 28.5972C16.5227 29.6367 19.758 29.4647 22.5741 28.119C25.3902 26.7734 27.5565 24.3643 28.5966 21.4216L28.5963 21.4213Z" fill="white"/>
</svg>
