<svg width="28" height="28" viewBox="0 0 28 28" fill="none" xmlns="http://www.w3.org/2000/svg">
<path d="M8.44658 2.33301H6.22992C3.67492 2.33301 2.33325 3.67467 2.33325 6.21801V8.43467C2.33325 10.978 3.67492 12.3197 6.21825 12.3197H8.43492C10.9783 12.3197 12.3199 10.978 12.3199 8.43467V6.21801C12.3316 3.67467 10.9899 2.33301 8.44658 2.33301Z" fill="#1FACF3"/>
<path d="M21.7816 2.33301H19.5649C17.0216 2.33301 15.6799 3.67467 15.6799 6.21801V8.43467C15.6799 10.978 17.0216 12.3197 19.5649 12.3197H21.7816C24.3249 12.3197 25.6666 10.978 25.6666 8.43467V6.21801C25.6666 3.67467 24.3249 2.33301 21.7816 2.33301Z" fill="#1FACF3"/>
<path d="M21.7816 15.668H19.5649C17.0216 15.668 15.6799 17.0096 15.6799 19.553V21.7696C15.6799 24.313 17.0216 25.6546 19.5649 25.6546H21.7816C24.3249 25.6546 25.6666 24.313 25.6666 21.7696V19.553C25.6666 17.0096 24.3249 15.668 21.7816 15.668Z" fill="#1FACF3"/>
<path d="M8.44658 15.668H6.22992C3.67492 15.668 2.33325 17.0096 2.33325 19.553V21.7696C2.33325 24.3246 3.67492 25.6663 6.21825 25.6663H8.43492C10.9783 25.6663 12.3199 24.3246 12.3199 21.7813V19.5646C12.3316 17.0096 10.9899 15.668 8.44658 15.668Z" fill="#1FACF3"/>
</svg>
