<svg width="48" height="48" viewBox="0 0 48 48" fill="none" xmlns="http://www.w3.org/2000/svg">
<path d="M12.1781 13.8848C11.7773 16.8308 12.1781 33.7052 12.1781 33.7052H15.8608V37.4504H31.9986V33.7052H36.2836V13.8848C36.2836 13.8848 35.1714 9.59961 31.9986 9.59961H15.8631C15.8631 9.59961 12.5801 10.9388 12.1781 13.8848Z" fill="#BBEFFF"/>
<path d="M31.6644 9.59961H17.28C15.8797 9.59961 14.5367 10.1559 13.5465 11.1461C12.5563 12.1363 12 13.4793 12 14.8796V34.0604C12 34.1877 12.0506 34.3098 12.1406 34.3998C12.2306 34.4898 12.3527 34.5404 12.48 34.5404H15.84V37.9004C15.84 38.0277 15.8906 38.1498 15.9806 38.2398C16.0706 38.3298 16.1927 38.3804 16.32 38.3804H32.6232C32.7505 38.3804 32.8726 38.3298 32.9626 38.2398C33.0526 38.1498 33.1032 38.0277 33.1032 37.9004V34.5404H36.4632C36.5905 34.5404 36.7126 34.4898 36.8026 34.3998C36.8926 34.3098 36.9432 34.1877 36.9432 34.0604V14.8796C36.9432 13.4795 36.3871 12.1367 35.3971 11.1465C34.4072 10.1564 33.0645 9.59993 31.6644 9.59961ZM28.3548 15.5696L29.1324 17.1296L25.512 19.7576L28.9428 10.9976L30.948 13.3376L28.5204 14.9564C28.4228 15.0209 28.3522 15.1188 28.3217 15.2317C28.2912 15.3446 28.303 15.4648 28.3548 15.5696ZM20.4168 14.9564L17.9916 13.3376L19.9968 10.9976L23.4252 19.7576L19.8 17.1248L20.58 15.5648C20.6318 15.46 20.6436 15.3398 20.6131 15.2269C20.5826 15.114 20.512 15.0161 20.4144 14.9516L20.4168 14.9564ZM20.856 10.5596H28.08L24.4656 19.7996L20.856 10.5596ZM35.976 33.5816H32.9916L31.2 26.8484L33.0984 16.8884L32.1564 16.7096L30.2364 26.7812C30.2224 26.852 30.2249 26.9251 30.2436 26.9948L32.1456 34.1276V37.4216H16.8V34.1228L18.702 26.99C18.7204 26.9203 18.7229 26.8472 18.7092 26.7764L16.7892 16.7048L15.8472 16.8836L17.7456 26.8436L15.9456 33.5756H12.96V14.8796C12.96 14.3123 13.0717 13.7505 13.2888 13.2264C13.5059 12.7023 13.8241 12.2261 14.2253 11.8249C14.6264 11.4238 15.1027 11.1056 15.6268 10.8884C16.1509 10.6713 16.7127 10.5596 17.28 10.5596H19.1148L16.9152 13.1252C16.8709 13.1766 16.8381 13.2368 16.8188 13.3019C16.7995 13.3669 16.7942 13.4353 16.8032 13.5026C16.8123 13.5698 16.8355 13.6344 16.8714 13.692C16.9072 13.7496 16.9549 13.799 17.0112 13.8368L19.5312 15.5168L18.7608 17.0564C18.7108 17.1578 18.6982 17.2736 18.7252 17.3833C18.7522 17.4931 18.8171 17.5898 18.9084 17.6564L23.9904 21.3596V24.9476H24.9504V21.3596L30.0288 17.666C30.1201 17.5994 30.185 17.5027 30.212 17.3929C30.239 17.2832 30.2264 17.1674 30.1764 17.066L29.4 15.5192L31.92 13.8392C32.0256 13.7682 32.0988 13.6582 32.1233 13.5333C32.1478 13.4084 32.1218 13.2789 32.0508 13.1732C32.0401 13.1573 32.0285 13.1421 32.016 13.1276L29.8296 10.5596H31.6644C32.8101 10.5596 33.9089 11.0148 34.7191 11.8249C35.5293 12.6351 35.9844 13.7339 35.9844 14.8796L35.976 33.5816Z" fill="#00C2FF"/>
<path d="M23.9905 25.9062H24.9505V26.8662H23.9905V25.9062Z" fill="#00C2FF"/>
<path d="M23.9905 27.8252H24.9505V28.7852H23.9905V27.8252Z" fill="#00C2FF"/>
<path d="M23.9905 29.7441H24.9505V30.7041H23.9905V29.7441Z" fill="#00C2FF"/>
<path d="M23.9905 31.6611H24.9505V32.6211H23.9905V31.6611Z" fill="#00C2FF"/>
<path d="M23.9905 33.5801H24.9505V34.5401H23.9905V33.5801Z" fill="#00C2FF"/>
<path d="M23.9905 35.499H24.9505V36.459H23.9905V35.499Z" fill="#00C2FF"/>
<path d="M26.3879 21.1104H30.228V22.0704H26.3879V21.1104Z" fill="#00C2FF"/>
</svg>
