<svg width="48" height="48" viewBox="0 0 48 48" fill="none" xmlns="http://www.w3.org/2000/svg">
<path d="M6 19.92H13.016V41.3076H33.385L33.8373 18.9012H40.9664L37.459 9.62161L28.633 6H17.7697L8.37715 10.1868L6 19.92Z" fill="#BBEFFF"/>
<path d="M42.2386 18.5182L39.217 8.84862C39.19 8.76291 39.1444 8.68424 39.0834 8.61826C39.0224 8.55228 38.9475 8.50063 38.8642 8.46702L29.7994 4.84062C29.7278 4.81308 29.6517 4.79924 29.575 4.79982H18.697C18.6201 4.79998 18.544 4.81463 18.4726 4.84302L9.40776 8.46942C9.32173 8.50259 9.2445 8.55513 9.18206 8.62297C9.11963 8.69082 9.07367 8.77214 9.04776 8.86062L6.02616 19.1338C5.99863 19.224 5.99273 19.3194 6.00894 19.4122C6.02515 19.5051 6.06302 19.5928 6.11947 19.6683C6.17592 19.7438 6.24936 19.805 6.33385 19.8468C6.41834 19.8886 6.51149 19.9099 6.60576 19.909H13.2538V40.4554C13.2538 40.6146 13.317 40.7672 13.4295 40.8797C13.542 40.9922 13.6946 41.0554 13.8538 41.0554H34.4098C34.5689 41.0554 34.7215 40.9922 34.834 40.8797C34.9465 40.7672 35.0098 40.6146 35.0098 40.4554V19.303H41.6578C41.7531 19.3041 41.8473 19.2825 41.9325 19.2399C42.0178 19.1973 42.0917 19.135 42.1481 19.0582C42.2046 18.9814 42.2419 18.8922 42.257 18.7981C42.2721 18.704 42.2645 18.6076 42.235 18.517L42.2386 18.5182ZM28.5706 6.00822L24.1306 14.3854L19.6906 6.00822H28.5706ZM33.805 26.6398C33.6498 26.8064 33.4617 26.939 33.2527 27.0292C33.0437 27.1195 32.8182 27.1655 32.5906 27.1642C31.8442 27.1642 31.4902 26.8042 30.931 26.1622C30.6565 25.729 30.277 25.3722 29.8278 25.125C29.3785 24.8777 28.874 24.7481 28.3612 24.7481C27.8483 24.7481 27.3438 24.8777 26.8946 25.125C26.4453 25.3722 26.0658 25.729 25.7914 26.1622C25.231 26.8018 24.8782 27.1642 24.1306 27.1642C23.383 27.1642 23.0302 26.8042 22.471 26.1622C22.1973 25.729 21.8184 25.372 21.3696 25.1247C20.9207 24.8773 20.4166 24.7476 19.9042 24.7476C19.3917 24.7476 18.8876 24.8773 18.4388 25.1247C17.9899 25.372 17.611 25.729 17.3374 26.1622C16.777 26.803 16.4242 27.1654 15.6766 27.1654C15.4497 27.1676 15.225 27.1222 15.0168 27.032C14.8087 26.9419 14.6218 26.8091 14.4682 26.6422V22.0594C14.8457 22.2381 15.2589 22.3288 15.6766 22.3246C16.1862 22.3075 16.6846 22.1704 17.1313 21.9243C17.5779 21.6783 17.9602 21.3303 18.247 20.9086C18.8062 20.2702 19.1578 19.9078 19.9006 19.9078C20.6434 19.9078 21.001 20.2678 21.5614 20.9098C21.8358 21.343 22.2153 21.6998 22.6646 21.9471C23.1138 22.1943 23.6183 22.324 24.1312 22.324C24.644 22.324 25.1485 22.1943 25.5978 21.9471C26.047 21.6998 26.4265 21.343 26.701 20.9098C27.2602 20.2702 27.6142 19.9078 28.3606 19.9078C29.107 19.9078 29.461 20.2678 30.0214 20.9098C30.3087 21.3302 30.691 21.6769 31.1374 21.9219C31.5838 22.1669 32.0816 22.3032 32.5906 22.3198C33.0103 22.3241 33.4255 22.233 33.805 22.0534V26.6398ZM14.467 39.8506V28.1026C14.8445 28.2813 15.2577 28.372 15.6754 28.3678C16.1848 28.3505 16.683 28.2133 17.1294 27.9673C17.5758 27.7212 17.9579 27.3733 18.2446 26.9518C18.8038 26.3134 19.1554 25.951 19.8982 25.951C20.641 25.951 20.9986 26.311 21.559 26.953C21.8334 27.3862 22.2129 27.743 22.6622 27.9903C23.1114 28.2375 23.6159 28.3672 24.1288 28.3672C24.6416 28.3672 25.1461 28.2375 25.5954 27.9903C26.0446 27.743 26.4241 27.3862 26.6986 26.953C27.2578 26.3134 27.6118 25.951 28.3582 25.951C29.1046 25.951 29.4586 26.311 30.019 26.953C30.3058 27.3743 30.6879 27.722 31.1343 27.9678C31.5807 28.2136 32.0788 28.3507 32.5882 28.3678C33.0079 28.3721 33.4231 28.281 33.8026 28.1014V39.8494L14.467 39.8506ZM35.0146 18.0946V12.6562H33.805V20.593C33.6498 20.7596 33.4617 20.8922 33.2527 20.9824C33.0437 21.0727 32.8182 21.1187 32.5906 21.1174C31.8442 21.1174 31.4902 20.7574 30.931 20.1154C30.6565 19.6822 30.277 19.3254 29.8278 19.0782C29.3785 18.8309 28.874 18.7013 28.3612 18.7013C27.8483 18.7013 27.3438 18.8309 26.8946 19.0782C26.4453 19.3254 26.0658 19.6822 25.7914 20.1154C25.231 20.755 24.8782 21.1174 24.1306 21.1174C23.383 21.1174 23.0302 20.7574 22.471 20.1154C22.1973 19.6822 21.8184 19.3252 21.3696 19.0779C20.9207 18.8305 20.4166 18.7008 19.9042 18.7008C19.3917 18.7008 18.8876 18.8305 18.4388 19.0779C17.9899 19.3252 17.611 19.6822 17.3374 20.1154C16.777 20.7562 16.4242 21.1186 15.6766 21.1186C15.4497 21.1208 15.225 21.0754 15.0168 20.9852C14.8087 20.8951 14.6218 20.7623 14.4682 20.5954V12.6562H13.2574V18.6994H7.41816L10.129 9.47982L18.4174 6.16422L23.6014 15.9574C23.6517 16.0557 23.7282 16.1382 23.8224 16.1958C23.9166 16.2534 24.0249 16.2838 24.1354 16.2838C24.2458 16.2838 24.3541 16.2534 24.4483 16.1958C24.5425 16.1382 24.619 16.0557 24.6694 15.9574L29.8534 6.16422L38.149 9.47982L40.8394 18.0898L35.0146 18.0946Z" fill="#00C2FF"/>
</svg>
