<svg width="48" height="48" viewBox="0 0 48 48" fill="none" xmlns="http://www.w3.org/2000/svg">
<path d="M11.9433 10.0688V13.5488L9.6001 23.1236V37.8548H37.3882V24.5984L35.1083 13.8848V9.59961L11.9433 10.0688Z" fill="#BBEFFF"/>
<path d="M37.6873 21.128L35.9557 13.856V10.0796C35.9557 9.9523 35.9051 9.83022 35.8151 9.7402C35.7251 9.65018 35.603 9.59961 35.4757 9.59961H12.4801C12.3528 9.59961 12.2307 9.65018 12.1407 9.7402C12.0507 9.83022 12.0001 9.9523 12.0001 10.0796V13.8572L10.2685 21.1292C9.82604 22.9831 9.60172 24.8824 9.6001 26.7884V37.8728C9.6001 38.0001 9.65067 38.1222 9.74069 38.2122C9.8307 38.3022 9.95279 38.3528 10.0801 38.3528H37.8733C38.0006 38.3528 38.1227 38.3022 38.2127 38.2122C38.3027 38.1222 38.3533 38.0001 38.3533 37.8728V26.7884C38.3526 24.8821 38.129 22.9824 37.6873 21.128ZM13.9129 10.5596V12.4796H14.8729V10.5596H15.8329V12.4796H16.7929V10.5596H17.7529V12.4796H18.7129V10.5596H19.6729V12.4796H20.6329V10.5596H21.5929V12.4796H22.5529V10.5596H23.5129V12.4796H24.4729V10.5596H25.4329V12.4796H26.3929V10.5596H27.3529V12.4796H28.3129V10.5596H29.2729V12.4796H30.2329V10.5596H31.1929V12.4796H32.1529V10.5596H33.1129V12.4796H34.0729V10.5596H35.0329V13.4396H12.9601V10.5596H13.9129ZM37.3945 37.394H10.5601V26.7884C10.5603 24.9569 10.7746 23.1318 11.1985 21.35L12.8557 14.39H17.4721C17.1745 15.0224 16.7521 16.07 16.1017 17.8184C15.1513 20.082 14.5746 22.4848 14.3941 24.9332V35.4752H15.3541V24.9344C15.3541 21.6236 17.9545 15.6944 18.5437 14.3924H21.5029C21.1897 16.418 20.1457 23.3252 20.1457 25.4144V33.0812H21.1057V25.4132C21.1057 23.366 22.1977 16.1732 22.4749 14.3912H25.4845C25.7569 16.2308 26.8561 23.7752 26.8561 25.4132V33.08H27.8161V25.4132C27.8161 23.7332 26.7613 16.4756 26.4553 14.3912H29.4001C29.9845 15.7604 32.5981 22.058 32.5981 24.9332V35.4752H33.5581V24.9344C33.3436 22.5499 32.7686 20.2117 31.8529 17.9996C31.1821 16.1372 30.7585 15.0416 30.4669 14.3876H35.0989L36.7561 21.3476C37.18 23.1294 37.3942 24.9545 37.3945 26.786V37.394Z" fill="#00C2FF"/>
</svg>
