<svg width="48" height="48" viewBox="0 0 48 48" fill="none" xmlns="http://www.w3.org/2000/svg">
<path d="M14.3999 7.2002V41.291H20.2798L22.3388 19.811H25.8696L27.488 41.291H33.9608V7.2002H14.3999Z" fill="#BBEFFF"/>
<path d="M33.2651 7.2002H13.7735C13.6214 7.2002 13.4755 7.26063 13.368 7.3682C13.2604 7.47577 13.2 7.62167 13.2 7.7738V41.0246C13.2 41.1767 13.2604 41.3226 13.368 41.4302C13.4755 41.5378 13.6214 41.5982 13.7735 41.5982H20.0796C20.2237 41.5987 20.3628 41.5449 20.4691 41.4475C20.5754 41.3501 20.6411 41.2163 20.6531 41.0726L22.3272 20.9606H24.7116L26.3855 41.0726C26.3976 41.2163 26.4633 41.3501 26.5696 41.4475C26.6759 41.5449 26.815 41.5987 26.9592 41.5982H33.2651C33.3405 41.5982 33.4151 41.5834 33.4846 41.5545C33.5542 41.5257 33.6175 41.4835 33.6707 41.4302C33.724 41.3769 33.7663 41.3137 33.7951 41.2441C33.8239 41.1745 33.8388 41.0999 33.8388 41.0246V7.7738C33.8388 7.62167 33.7783 7.47577 33.6707 7.3682C33.5632 7.26063 33.4173 7.2002 33.2651 7.2002ZM31.5456 10.6394H32.6915V15.2258H32.1179C31.9658 15.2258 31.8199 15.1654 31.7124 15.0578C31.6048 14.9502 31.5444 14.8043 31.5444 14.6522L31.5456 10.6394ZM32.6915 9.49339H25.2383V8.34739H32.6915V9.49339ZM22.9452 9.49339V8.34739H24.0911V9.49339H22.9452ZM21.7992 8.34739V9.49339H14.346V8.34739H21.7992ZM14.346 10.6406H15.492V14.6534C15.492 14.7287 15.4771 14.8033 15.4483 14.8729C15.4195 14.9425 15.3772 15.0057 15.3239 15.059C15.2707 15.1123 15.2074 15.1545 15.1379 15.1833C15.0683 15.2122 14.9937 15.227 14.9184 15.227H14.3448L14.346 10.6406ZM14.346 40.451V38.7314H19.6944L19.5515 40.451H14.346ZM25.812 20.339C25.7999 20.1953 25.7342 20.0615 25.6279 19.9641C25.5216 19.8667 25.3825 19.8129 25.2383 19.8134H21.7992C21.655 19.8129 21.5159 19.8667 21.4096 19.9641C21.3033 20.0615 21.2376 20.1953 21.2256 20.339L19.7928 37.5842H14.3472V16.373H14.9207C15.3768 16.373 15.8142 16.1918 16.1367 15.8693C16.4592 15.5468 16.6403 15.1095 16.6403 14.6534V10.6394H30.3995V14.6522C30.3995 15.1083 30.5807 15.5456 30.9032 15.8681C31.2257 16.1906 31.6631 16.3718 32.1191 16.3718H32.6928V37.5842H27.2399L25.812 20.339ZM27.4859 40.451L27.3432 38.7314H32.6915V40.451H27.4859Z" fill="#00C2FF"/>
<path d="M20.6531 11.7861H21.7991V12.9321H20.6531V11.7861Z" fill="#00C2FF"/>
<path d="M20.6531 14.0801H21.7991V15.2261H20.6531V14.0801Z" fill="#00C2FF"/>
<path d="M25.2383 11.7861H26.3843V12.9321H25.2383V11.7861Z" fill="#00C2FF"/>
<path d="M25.2383 14.0801H26.3843V15.2261H25.2383V14.0801Z" fill="#00C2FF"/>
</svg>
