<svg width="48" height="48" viewBox="0 0 48 48" fill="none" xmlns="http://www.w3.org/2000/svg">
<path d="M9.6001 16.3144V34.4968L10.1151 35.0116C10.0217 35.2425 10.0217 35.5007 10.1151 35.7316C10.2514 36.2039 10.3547 36.685 10.4245 37.1716H14.6485V38.6116C14.6485 38.6116 14.7515 39.2812 14.9063 39.3316C15.0611 39.382 15.3698 40.2592 15.3698 40.2592L15.678 41.5468L33.3458 41.7532V39.538L34.6337 39.0748V36.8692H38.754V34.7572L39.4741 34.4992L39.2679 16.3168L37.619 12.7624L33.7044 11.1136H32.004L30.7167 7.19922L17.8911 7.71402L16.8616 11.422H13.6214L12.2304 12.1948C12.2304 12.1948 11.8188 12.7612 11.406 13.2244C10.9494 13.6619 10.5197 14.1263 10.1187 14.6152C9.86556 15.1539 9.69083 15.7262 9.6001 16.3144Z" fill="#BBEFFF"/>
<path d="M32.6483 9.5484H31.8911L30.8435 6.4044C30.8042 6.28657 30.7288 6.1841 30.628 6.11152C30.5272 6.03893 30.4061 5.99992 30.2819 6H17.2715C17.1475 6.00017 17.0267 6.0393 16.9261 6.11187C16.8256 6.18443 16.7503 6.28676 16.7111 6.4044L15.6635 9.5484H14.9063C13.1815 9.55031 11.5279 10.2362 10.3081 11.4558C9.08837 12.6753 8.40213 14.3288 8.3999 16.0536V33.7968C8.3999 33.9537 8.46223 34.1042 8.57318 34.2151C8.68413 34.3261 8.8346 34.3884 8.9915 34.3884V35.5716C8.9915 35.8854 9.11616 36.1864 9.33805 36.4083C9.55995 36.6301 9.8609 36.7548 10.1747 36.7548H13.1315V37.938C13.1315 38.2518 13.2562 38.5528 13.4781 38.7747C13.6999 38.9965 14.0009 39.1212 14.3147 39.1212V40.3044C14.3147 40.6182 14.4394 40.9192 14.6613 41.1411C14.8831 41.3629 15.1841 41.4876 15.4979 41.4876H32.0579C32.3717 41.4876 32.6727 41.3629 32.8946 41.1411C33.1164 40.9192 33.2411 40.6182 33.2411 40.3044V39.12C33.5549 39.12 33.8559 38.9953 34.0778 38.7735C34.2997 38.5516 34.4243 38.2506 34.4243 37.9368V36.7536H37.3799C37.6937 36.7536 37.9947 36.6289 38.2166 36.4071C38.4384 36.1852 38.5631 35.8842 38.5631 35.5704V34.3872C38.6408 34.3872 38.7177 34.3719 38.7895 34.3422C38.8613 34.3124 38.9265 34.2689 38.9814 34.2139C39.0364 34.159 39.0799 34.0938 39.1097 34.022C39.1394 33.9502 39.1547 33.8733 39.1547 33.7956V16.0536C39.1525 14.3288 38.4662 12.6753 37.2465 11.4558C36.0268 10.2362 34.3731 9.55031 32.6483 9.5484ZM18.6155 7.1832H28.9355L23.7755 12.8136L18.6155 7.1832ZM30.0395 7.7328L30.7379 9.8256L26.2019 11.9184L30.0395 7.7328ZM17.5139 7.7328L21.3539 11.9172L16.8179 9.8244L17.5139 7.7328ZM10.1735 35.5728V34.3896H13.1303V35.5728H10.1735ZM32.0555 40.3044H15.4955V39.12H32.0555V40.3044ZM18.5519 37.9368L19.3211 32.9352C19.3837 32.5155 19.5956 32.1324 19.9179 31.8562C20.2401 31.58 20.6511 31.4293 21.0755 31.4316H26.4755C26.8997 31.4296 27.3104 31.5804 27.6324 31.8566C27.9544 32.1327 28.1661 32.5157 28.2287 32.9352L28.9979 37.9368H18.5519ZM33.2387 37.9368H30.1979L29.3999 32.76C29.296 32.0602 28.9431 31.4213 28.4062 30.9607C27.8692 30.5 27.1842 30.2484 26.4767 30.252H21.0767C20.3692 30.2484 19.6842 30.5 19.1472 30.9607C18.6103 31.4213 18.2575 32.0602 18.1535 32.76L17.3567 37.9404H14.3135V17.2368H13.1303V33.2052H9.5831V16.0536C9.58469 14.6423 10.146 13.2892 11.144 12.2913C12.1419 11.2933 13.495 10.732 14.9063 10.7304H15.9599L23.5295 14.2248C23.6049 14.2592 23.6867 14.2769 23.7695 14.2769C23.8523 14.2769 23.9342 14.2592 24.0095 14.2248L31.5803 10.7304H32.6327C34.044 10.732 35.3971 11.2933 36.395 12.2913C37.393 13.2892 37.9543 14.6423 37.9559 16.0536V33.2052H34.4219V17.2368H33.2399L33.2387 37.9368ZM37.3787 35.5716H34.4219V34.3884H37.3799L37.3787 35.5716Z" fill="#00C2FF"/>
<path d="M25.5515 14.8721H26.7347V20.7857H25.5515V14.8721Z" fill="#00C2FF"/>
<path d="M25.5515 21.9688H26.7347V23.1519H25.5515V21.9688Z" fill="#00C2FF"/>
<path d="M20.8198 14.8721H22.003V20.7857H20.8198V14.8721Z" fill="#00C2FF"/>
<path d="M20.8198 21.9688H22.003V23.1519H20.8198V21.9688Z" fill="#00C2FF"/>
</svg>
